<?xml version="1.0" encoding="utf-8"?>
<!-- Generator: Adobe Illustrator 24.0.1, SVG Export Plug-In . SVG Version: 6.00 Build 0)  -->
<svg version="1.1" xmlns="http://www.w3.org/2000/svg" xmlns:xlink="http://www.w3.org/1999/xlink" x="0px" y="0px"
	 viewBox="0 0 1160 1160" style="enable-background:new 0 0 1160 1160;" xml:space="preserve">
<style type="text/css">
	.st0{fill:none;stroke:#000000;stroke-width:21;stroke-miterlimit:10;}
	.st1{fill:none;stroke:#009245;stroke-width:7;stroke-miterlimit:10;}
</style>
<g id="Capa_3">
	<path class="st0" d="M1056,730H215c0,0-12,0-20-7s-12-20-12-20v-34c0,0-1-11-6-17s-11-15-18-18s-64-25-70-28s-50-25-50-79
		s44-93,91-106s44-10,44-10h203c0,0,38.5,4.5,39.5,42.5s-26,55-39,62s-38,10-38,10h-149c0,0-27,2-27,28s18,28,33,38s95,73,148,74
		s88,1,88,1s11,0,19-9s9-12,9-18s-2-37,5-51s90-136,90-136s23-27,56-27s82,37,82,37l291,173c0,0,4,5,14,5s20-4,24-13s5-21,2-36
		s-10-37-29-49s-53-23-53-23s-30-11-29-44s32-42,32-42s4-3,14-3s20,5,20,5l104,34c0,0,27,14,33,28s8,12,8,23s0,149,0,149
		s-4,31-23,44S1056,730,1056,730z"/>
</g>
<g id="Capa_2">
	<path class="st1" d="M839.5,730.5h-626c0,0-12,3-21-11s-9-20-9-20l-2-38l-7-14l-19-16l-44-16c0,0-55-18-65-53s-13-71,26-109
		s104-43,104-43h153"/>
	<path class="st1" d="M330.5,410.5h47c0,0,38,4,38,45s-44,62-44,62s-16,9-31,9s-151,0-151,0s-25,1-26,28s108,86,108,86s24,17,55,21
		s78.8,4.85,78.8,4.85h29.12c0,0,7.94,0.3,15.01-6.77s9.98-13.13,9.98-13.13l1.74-40.32l3.23-15.04
		c8.12-13.58,92.85-140.45,92.85-140.45s16.57-20.82,42.42-23.98s43.88,6.74,43.88,6.74L940.5,609.5"/>
	<path class="st1" d="M941.5,609.5l46.18,28.46c0,0,14.74,6.56,25.78-0.95c11.04-7.51,14.04-24.51,14.04-24.51
		s0.27-41.33-18.87-58.16c-19.13-16.84-69.18-36.21-69.18-36.21s-34.88-15.24-24.42-53.43s50.7-33.62,50.7-33.62l118.7,38.92
		c0,0,21.5,7.43,29.78,23.46s10.28,26.1,10.28,26.1l1,148.93c0,0-0.66,26.96-21.33,42.98c-20.67,16.02-49.36,18.52-49.36,18.52
		H839.77"/>
</g>
</svg>
