<?xml version="1.0" encoding="utf-8"?>
<!-- Generator: Adobe Illustrator 24.0.1, SVG Export Plug-In . SVG Version: 6.00 Build 0)  -->
<svg version="1.1" xmlns="http://www.w3.org/2000/svg" xmlns:xlink="http://www.w3.org/1999/xlink" x="0px" y="0px"
	 viewBox="0 0 1160 1160" style="enable-background:new 0 0 1160 1160;" xml:space="preserve">
<style type="text/css">
	.st0{fill:none;stroke:#000000;stroke-width:25;stroke-miterlimit:10;}
	.st1{fill:none;stroke:#39B54A;stroke-width:10;stroke-miterlimit:10;}
</style>
<g id="Capa_2">
	<path class="st0" d="M872.5,511.5l251,310c0,0,8,11,9,24s-5,29-5,29s-4,30-19,36s-32,4-40-5s-51-80-51-80s-4-14-21-20s-27-4-27-4
		s-13,6-26-4s-15-28-15-28l-13-41c0,0-1-15-18-22s-46-5-46-5s-28-4-38-19s-8-35-8-35s23-43,19-64s-4-24-23-34s-49-27-84-22
		s-60,17-85,48s-53,64-53,64l-76,5c0,0-11,2-15-1s-3-9-4-13s-29-152-29-152v-11c1-8,22-59,22-59s8-14-5-19s-17,9-17,9s-42,73-61,86
		s-57,25-92,19s-98-27-118-57s-49-103-55-113s-9-15-17-18s-40-3-56,4s-26,14-24,38s31,45,31,45s70,60,128,85s258,97,258,97
		s38,18,54,17s82-34,82-34l97-85c0,0,10-10,15-10s14,17,25,17s28-29,68-27S872.5,511.5,872.5,511.5z"/>
</g>
<g id="Capa_3">
	<path class="st1" d="M873.5,512.5c0,0,245,297,253,315s9,29,5,39s-7,22-7,22s-7,22-23,24s-22,1-29-5s-58-87-58-87s-4-9-10-12
		s-51-3-60-12s-14-19-14-19l-14-51c0,0-4-11-15-17s-24-8-24-8h-28c0,0-23-5-30-15s-17-22-12-40s16-50,16-50s2-5-1-19s-16-24-16-24
		s-35-29-79-27s-69,22-78,31s-36,42-36,42"/>
	<path class="st1" d="M610,603l-30,36l-84,6c0,0-3,2-7-2s-7-22-7-22l-27-145c0,0-2-6,0-14s23-55,23-55s6-12-5-17s-18,8-18,8
		s-43,81-72,94s-64,14-88,9s-87-27-104-47s-33-48-41-73s-20-56-34-63s-39-5-53,0s-31,10-31,34s28,48,28,48s92,71,142,91s60,24,60,24
		"/>
	<path class="st1" d="M265,516l225,83c0,0,10.04,2.9,19,2c10-1,39-14,82-40c45.48-27.5,82-76,94-81s7-6,13-6s15,17,24,17
		s28-28,59-28s45,11,60,21s29,27,29,27"/>
</g>
</svg>
