<?xml version="1.0" encoding="utf-8"?>
<!-- Generator: Adobe Illustrator 24.0.1, SVG Export Plug-In . SVG Version: 6.00 Build 0)  -->
<svg version="1.1" xmlns="http://www.w3.org/2000/svg" xmlns:xlink="http://www.w3.org/1999/xlink" x="0px" y="0px"
	 viewBox="0 0 1160 2160" style="enable-background:new 0 0 1160 2160;" xml:space="preserve">
<style type="text/css">
	.st0{fill:#808080;stroke:#4D4D4D;stroke-width:4;stroke-miterlimit:10;}
	.st1{fill:none;stroke:#39B54A;stroke-width:6;stroke-miterlimit:10;}
</style>
<g id="Capa_3">
	<path class="st0" d="M347,488l176-31l-1,38l-121,20c0,0-14,2-14,11s21,26,21,26l100,71l-4,42L356,544l-11.23,4.02L347,488z"/>
	<path class="st0" d="M643.79,453.98L825,486v73L664,666l-5.75-43L716,585l61-50c0,0,4-4,3-10s-9-11-9-11l-128-19L643.79,453.98z"/>
	<path class="st0" d="M801.23,1853l-182.26,4.98l0.23-28.75L762,1830c0,0,5,2,6-6s-12-17-12-17l-96-95c0,0-1-12,2-20s6-13,6-13
		l83,88l-54.83-77.02l17.89-48.23L778,1738l23,24L801.23,1853"/>
	<path class="st0" d="M568,1858l-188.36-0.92l1.58-98.94l87.4-107.09l15.85,37.81L451,1746l62-66c0,0,7,6,8,14s1,19,1,19l-102,106
		c0,0-6,5-3,9s7,5,7,5l143.34,0.3L568,1858z"/>
</g>
<g id="Capa_2">
	<path class="st1" d="M242,379c0,0-15,0-23,8s-9,16-9,16l1,225c0,0,1,7,7,13s21,7,21,7h74c0,0,18,0,25-8s6-14,6-14l2-222
		c0,0-3-9-8-15s-25-10-25-10H242z"/>
	<path class="st1" d="M857,377c0,0-15,0-23,8s-9,16-9,16l1,225c0,0,1,7,7,13s21,7,21,7h74c0,0,18,0,25-8s6-14,6-14l2-222
		c0,0-3-9-8-15s-25-10-25-10H857z"/>
	<path class="st1" d="M217,1719l-1,228c0,0,0,5,9,12s19,5,19,5h113c0,0,11,1,17-6s5-80,5-80l2-160c0,0,1-8-7-15s-20-6-20-6H249
		c0,0-16-1-23,5S217,1719,217,1719z"/>
	<path class="st1" d="M802,1717l-1,228c0,0,0,5,9,12s19,5,19,5h113c0,0,11,1,17-6s5-80,5-80l2-160c0,0,1-8-7-15s-20-6-20-6H834
		c0,0-16-1-23,5S802,1717,802,1717z"/>
	<path class="st1" d="M485,855l38-359l-2-287v-61c0,0,2-62,59-62s64,64,64,64v348l41,357c0,0,85,44,128,100s46,128,46,128
		s7,154-34,272s-117,300-117,300s-22,58-29,99s-12,64-12,64l-60,6h-30l-60-6c0,0,2-7-12-63s-36-103-36-103s-62-133-114-293
		s-39-285-39-285s-16-58,46-118S485,855,485,855z"/>
	<path class="st1" d="M405,1910l-12,173c0,0,0,17,14,17s12-21,12-21h153v39l45-1l-2-37l153-3c0,0-5,22,14,22s15-23,15-23l-8-166
		l-170-2v-84h-12h-30h-10v85L405,1910z"/>
	<path class="st1" d="M485,855l-10,60l-36,103l3,259l11,37l-111.85-0.09l-11.62-52.98c0,0-22.53-118.92-13.53-186.92
		s32.85-103.19,32.85-103.19L485,855z"/>
	<path class="st1" d="M682,852l10,60l36,103l-3,259l-11,37l111.85-0.09l11.62-52.98c0,0,22.53-118.92,13.53-186.92
		c-4.34-32.79-8.13-63.95-15.04-81.22C829.45,973.5,820,960,805.6,947.74L682,852z"/>
	<path class="st1" d="M220,340l177-33c0,0,21,0,34-6s28-12,36-19s53.92-47.79,53.92-47.79L521,148c0,0,2-62,59-62s64,64,64,64
		l0.4,80.89c0,0,15.6,19.11,37.6,35.11s47,29,47,29l16,5c20,3,84,11,123,21s70,16,70,16s7,2,10-1s-2-20-2-20h15l-3-123c0,0-4-3-10-6
		s-9-3-9-3v-25c0,0-296-127-359-127S225,163,225,163l-2,24c0,0-8,2-12,5s-5,7-5,7v120l16,1L220,340z"/>
</g>
</svg>
