<?xml version="1.0" encoding="utf-8"?>
<!-- Generator: Adobe Illustrator 24.0.1, SVG Export Plug-In . SVG Version: 6.00 Build 0)  -->
<svg version="1.1" id="Capa_1" xmlns="http://www.w3.org/2000/svg" xmlns:xlink="http://www.w3.org/1999/xlink" x="0px" y="0px"
	 viewBox="0 0 1000 1000" style="enable-background:new 0 0 1000 1000;" xml:space="preserve">
<style type="text/css">
	.st0{fill:#C1272D;}
</style>
<g>
	<path class="st0" d="M500,15c65.48,0,128.99,12.82,188.78,38.11c57.75,24.43,109.62,59.4,154.16,103.94
		c44.54,44.54,79.51,96.41,103.94,154.16C972.18,371.01,985,434.52,985,500s-12.82,128.99-38.11,188.78
		c-24.43,57.75-59.4,109.62-103.94,154.16c-44.54,44.54-96.41,79.51-154.16,103.94C628.99,972.18,565.48,985,500,985
		s-128.99-12.82-188.78-38.11c-57.75-24.43-109.62-59.4-154.16-103.94c-44.54-44.54-79.51-96.41-103.94-154.16
		C27.82,628.99,15,565.48,15,500s12.82-128.99,38.11-188.78c24.43-57.75,59.4-109.62,103.94-154.16s96.41-79.51,154.16-103.94
		C371.01,27.82,434.52,15,500,15 M500,9C228.83,9,9,228.83,9,500s219.83,491,491,491s491-219.83,491-491S771.17,9,500,9L500,9z"/>
</g>
<g>
	<path class="st0" d="M500,136.89c49.02,0,96.58,9.6,141.34,28.53c43.24,18.29,82.07,44.47,115.42,77.82s59.53,72.18,77.82,115.42
		c18.93,44.76,28.53,92.32,28.53,141.34s-9.6,96.58-28.53,141.34c-18.29,43.24-44.47,82.07-77.82,115.42s-72.18,59.53-115.42,77.82
		c-44.76,18.93-92.32,28.53-141.34,28.53s-96.58-9.6-141.34-28.53c-43.24-18.29-82.07-44.47-115.42-77.82s-59.53-72.18-77.82-115.42
		c-18.93-44.76-28.53-92.32-28.53-141.34s9.6-96.58,28.53-141.34c18.29-43.24,44.47-82.07,77.82-115.42s72.18-59.53,115.42-77.82
		C403.42,146.49,450.98,136.89,500,136.89 M500,130.89c-203.86,0-369.11,165.26-369.11,369.11S296.14,869.11,500,869.11
		S869.11,703.86,869.11,500S703.86,130.89,500,130.89L500,130.89z"/>
</g>
<g>
	<path class="st0" d="M500,256.18c32.92,0,64.85,6.45,94.9,19.16c29.03,12.28,55.11,29.86,77.5,52.26
		c22.39,22.39,39.98,48.47,52.26,77.5c12.71,30.06,19.16,61.99,19.16,94.9c0,32.92-6.45,64.85-19.16,94.9
		c-12.28,29.03-29.86,55.11-52.26,77.5s-48.47,39.98-77.5,52.26c-30.06,12.71-61.99,19.16-94.9,19.16
		c-32.92,0-64.85-6.45-94.9-19.16c-29.03-12.28-55.11-29.86-77.5-52.26c-22.39-22.39-39.98-48.47-52.26-77.5
		c-12.71-30.06-19.16-61.99-19.16-94.9c0-32.92,6.45-64.85,19.16-94.9c12.28-29.03,29.86-55.11,52.26-77.5
		c22.39-22.39,48.47-39.98,77.5-52.26C435.15,262.62,467.08,256.18,500,256.18 M500,250.18c-137.97,0-249.82,111.85-249.82,249.82
		S362.03,749.82,500,749.82S749.82,637.97,749.82,500S637.97,250.18,500,250.18L500,250.18z"/>
</g>
<g>
	<path class="st0" d="M500,379.79c32.11,0,62.3,12.5,85,35.21c22.7,22.7,35.21,52.89,35.21,85c0,32.11-12.5,62.3-35.21,85
		c-22.7,22.7-52.89,35.21-85,35.21c-32.11,0-62.3-12.5-85-35.21c-22.7-22.7-35.21-52.89-35.21-85c0-32.11,12.5-62.3,35.21-85
		C437.7,392.3,467.89,379.79,500,379.79 M500,373.79c-69.7,0-126.21,56.51-126.21,126.21S430.3,626.21,500,626.21
		S626.21,569.7,626.21,500S569.7,373.79,500,373.79L500,373.79z"/>
</g>
</svg>
